HIERARCHY
ROOT joint_Root
{
	OFFSET 0.0 0.0 0.0
	CHANNELS 6 Xposition Yposition Zposition Zrotation Xrotation Yrotation 
	JOINT Hips
	{
		OFFSET -17.1583 93.1646 452.98
		CHANNELS 6 Xposition Yposition Zposition Zrotation Xrotation Yrotation 
		JOINT Spine
		{
			OFFSET 15.7357 0.0 0.0
			CHANNELS 6 Xposition Yposition Zposition Zrotation Xrotation Yrotation 
			JOINT Chest
			{
				OFFSET 8.98455 -0.406207 0.0
				CHANNELS 6 Xposition Yposition Zposition Zrotation Xrotation Yrotation 
				JOINT Neck
				{
					OFFSET 16.3773 0.0 0.0
					CHANNELS 6 Xposition Yposition Zposition Zrotation Xrotation Yrotation 
					JOINT Head
					{
						OFFSET 6.45672 0.0 0.0
						CHANNELS 6 Xposition Yposition Zposition Zrotation Xrotation Yrotation 
						End Site
						{
							OFFSET 0.0 0.0 0.0
						}
					}
				}
				JOINT Shoulder_L
				{
					OFFSET 12.9942 -0.242716 4.98039
					CHANNELS 6 Xposition Yposition Zposition Zrotation Xrotation Yrotation 
					JOINT UpperArm_L
					{
						OFFSET 5.34809 0.0 0.0
						CHANNELS 6 Xposition Yposition Zposition Zrotation Xrotation Yrotation 
						JOINT LowerArm_L
						{
							OFFSET 24.3286 1.87007e-05 0.0
							CHANNELS 6 Xposition Yposition Zposition Zrotation Xrotation Yrotation 
							JOINT Hand_L
							{
								OFFSET 22.2916 0.0 0.0
								CHANNELS 6 Xposition Yposition Zposition Zrotation Xrotation Yrotation 
								End Site
								{
									OFFSET 0.0 0.0 0.0
								}
							}
						}
					}
				}
				JOINT Shoulder_R
				{
					OFFSET 12.9945 -0.242716 -4.98039
					CHANNELS 6 Xposition Yposition Zposition Zrotation Xrotation Yrotation 
					JOINT UpperArm_R
					{
						OFFSET -5.34813 0.0 0.0
						CHANNELS 6 Xposition Yposition Zposition Zrotation Xrotation Yrotation 
						JOINT LowerArm_R
						{
							OFFSET -24.3289 0.000322201 0.0
							CHANNELS 6 Xposition Yposition Zposition Zrotation Xrotation Yrotation 
							JOINT Hand_R
							{
								OFFSET -22.2915 -0.000108084 0.0
								CHANNELS 6 Xposition Yposition Zposition Zrotation Xrotation Yrotation 
								End Site
								{
									OFFSET 0.0 0.0 0.0
								}
							}
						}
					}
				}
			}
		}
		JOINT UpperLeg_L
		{
			OFFSET -2.19248 -6.46944 0.0
			CHANNELS 6 Xposition Yposition Zposition Zrotation Xrotation Yrotation 
			JOINT LowerLeg_L
			{
				OFFSET 39.0811 0.0 -1.23785e-05
				CHANNELS 6 Xposition Yposition Zposition Zrotation Xrotation Yrotation 
				JOINT Foot_L
				{
					OFFSET 40.9854 0.0 -1.26872e-05
					CHANNELS 6 Xposition Yposition Zposition Zrotation Xrotation Yrotation 
					JOINT Toes_L
					{
						OFFSET 11.7543 0.0 0.0
						CHANNELS 6 Xposition Yposition Zposition Zrotation Xrotation Yrotation 
						End Site
						{
							OFFSET 0.0 0.0 0.0
						}
					}
				}
			}
		}
		JOINT UpperLeg_R
		{
			OFFSET -2.19251 6.46944 0.0
			CHANNELS 6 Xposition Yposition Zposition Zrotation Xrotation Yrotation 
			JOINT LowerLeg_R
			{
				OFFSET -39.0811 -0.00228153 -0.0401928
				CHANNELS 6 Xposition Yposition Zposition Zrotation Xrotation Yrotation 
				JOINT Foot_R
				{
					OFFSET -40.9854 0.0 0.0
					CHANNELS 6 Xposition Yposition Zposition Zrotation Xrotation Yrotation 
					JOINT Toes_R
					{
						OFFSET -11.7543 0.0 0.0
						CHANNELS 6 Xposition Yposition Zposition Zrotation Xrotation Yrotation 
						End Site
						{
							OFFSET 0.0 0.0 0.0
						}
					}
				}
			}
		}
	}
}
MOTION
Frames:	8
Frame Time:	0.0333333
0.000000 0.000000 0.000000 0.000000 0.000000 -0.000000 -4.206320 92.828600 1.303280 87.746900 3.648700 2.609350 15.735700 0.000005 -0.000001 71.945400 87.677500 -70.993600 8.984550 -0.406207 -0.000000 -3.336860 -1.531080 1.859410 16.377300 -0.000001 -0.000001 6.274820 2.533750 -1.817160 6.456720 -0.000001 -0.000000 4.654510 3.737610 -1.620830 12.994200 -0.242716 4.980390 -92.611300 7.770870 -71.360600 5.348090 -0.000007 -0.000001 -73.009000 24.409100 3.267070 24.328600 0.000019 0.000005 11.813200 25.937400 -25.556100 22.291600 -0.000001 0.000005 -2.129130 4.927670 8.821250 12.994500 -0.242716 -4.980390 88.841800 3.835360 -73.183400 -5.348130 -0.000001 -0.000004 -73.326200 30.432000 -2.264920 -24.328900 0.000322 -0.000009 1.198940 4.636290 -14.529900 -22.291500 -0.000108 -0.000004 -9.825750 5.162610 3.639820 -2.192480 -6.469440 -0.000000 -171.004000 -5.083140 0.558512 39.081100 -0.000007 -0.000012 0.020302 -0.071020 15.953300 40.985400 -0.000006 -0.000013 -2.749720 13.253800 -68.864000 11.754300 -0.000000 0.000003 -0.002022 0.196617 -8.599810 -2.192510 6.469440 -0.000001 179.828000 8.879310 -177.175000 -39.081100 -0.002282 -0.040193 0.043793 -0.160134 14.180300 -40.985400 0.000008 0.000006 -2.786230 3.975480 -70.217400 -11.754300 -0.000006 -0.000006 -0.010102 0.272063 -5.519990
0.000000 0.000000 0.000000 0.000000 0.000000 -0.000000 -4.086180 92.839900 1.326910 87.784100 3.882890 2.452730 15.735700 0.000005 -0.000001 70.099000 87.646600 -69.242000 8.984550 -0.406207 -0.000000 -3.327800 -1.684320 1.665480 16.377300 -0.000001 -0.000001 6.014480 2.585650 -2.306570 6.456720 -0.000001 -0.000000 4.326180 3.755490 -2.246190 12.994200 -0.242716 4.980390 -92.567700 7.667060 -71.421100 5.348090 -0.000007 -0.000001 -73.004500 23.272100 3.427120 24.328600 0.000019 0.000005 11.884100 25.767900 -25.830700 22.291600 -0.000001 0.000005 -2.097080 4.919790 8.980830 12.994500 -0.242716 -4.980390 88.855700 3.725030 -72.910500 -5.348130 -0.000001 -0.000004 -72.127100 28.620500 -3.248070 -24.328900 0.000322 -0.000009 1.373800 5.729750 -13.519500 -22.291500 -0.000108 -0.000004 -10.035800 5.163480 3.619310 -2.192480 -6.469440 -0.000000 -171.183000 -4.803950 0.357385 39.081100 -0.000007 -0.000012 0.024104 -0.084193 15.976700 40.985400 -0.000006 -0.000013 -2.662800 13.141700 -68.950500 11.754300 -0.000000 0.000003 -0.002130 0.197957 -8.545320 -2.192510 6.469440 -0.000001 179.683000 9.155990 -177.215000 -39.081100 -0.002282 -0.040193 0.040632 -0.149293 14.027700 -40.985400 0.000008 0.000006 -2.984660 4.061730 -70.130400 -11.754300 -0.000006 -0.000006 -0.010134 0.272304 -5.510120
0.000000 0.000000 0.000000 0.000000 0.000000 -0.000000 -3.952900 92.863300 1.344260 87.867700 4.293950 2.263800 15.735700 0.000005 -0.000001 68.256700 87.609800 -67.588900 8.984550 -0.406207 -0.000000 -3.315470 -1.834600 1.282800 16.377300 -0.000001 -0.000001 5.682400 2.485510 -2.629460 6.456720 -0.000001 -0.000000 3.901970 3.560840 -2.912170 12.994200 -0.242716 4.980390 -92.527100 7.559440 -71.454400 5.348090 -0.000007 -0.000001 -72.754600 22.373300 3.334150 24.328600 0.000019 0.000005 11.857000 25.546900 -25.958400 22.291600 -0.000001 0.000005 -1.896630 4.920450 8.967260 12.994500 -0.242716 -4.980390 88.884100 3.563540 -72.599100 -5.348130 -0.000001 -0.000004 -70.427500 26.358800 -4.105460 -24.328900 0.000322 -0.000009 1.618610 7.129260 -12.835600 -22.291500 -0.000108 -0.000004 -9.991070 5.145460 4.051540 -2.192480 -6.469440 -0.000000 -171.373000 -4.571240 0.179599 39.081100 -0.000007 -0.000012 0.024139 -0.085329 15.796300 40.985400 -0.000006 -0.000013 -2.575610 13.278600 -68.809800 11.754300 -0.000000 0.000003 -0.001879 0.194821 -8.672870 -2.192510 6.469440 -0.000001 179.490000 9.481310 -177.231000 -39.081100 -0.002282 -0.040193 0.036245 -0.134130 13.786600 -40.985400 0.000008 0.000006 -3.294440 4.077430 -69.973200 -11.754300 -0.000006 -0.000006 -0.009789 0.269722 -5.615710
0.000000 0.000000 0.000000 0.000000 0.000000 -0.000000 -3.820360 92.883400 1.378020 87.883500 4.662120 1.984270 15.735700 0.000005 -0.000001 67.886000 87.612100 -67.468800 8.984550 -0.406207 -0.000000 -3.335500 -1.837390 0.781169 16.377300 -0.000001 -0.000001 5.245180 2.212540 -2.775840 6.456720 -0.000001 -0.000000 3.369110 3.166270 -3.475000 12.994200 -0.242716 4.980390 -92.485800 7.467380 -71.528600 5.348090 -0.000007 -0.000001 -72.241600 21.873100 3.097940 24.328600 0.000019 0.000005 11.969100 25.458000 -26.251400 22.291600 -0.000001 0.000005 -1.824900 4.916710 9.043040 12.994500 -0.242716 -4.980390 88.948800 3.303400 -72.337000 -5.348130 -0.000001 -0.000004 -68.041800 24.615700 -4.801040 -24.328900 0.000322 -0.000009 1.928070 8.655310 -12.615600 -22.291500 -0.000108 -0.000004 -9.918530 5.114220 4.786630 -2.192480 -6.469440 -0.000000 -171.521000 -4.369060 -0.111356 39.081100 -0.000007 -0.000012 0.027369 -0.097017 15.754200 40.985400 -0.000006 -0.000013 -2.459960 13.373900 -68.912600 11.754300 -0.000000 0.000003 -0.001979 0.196089 -8.621320 -2.192510 6.469440 -0.000001 179.369000 9.831560 -177.310000 -39.081100 -0.002282 -0.040193 0.030872 -0.114773 13.492800 -40.985400 0.000008 0.000006 -3.663430 4.148080 -69.783200 -11.754300 -0.000006 -0.000006 -0.009857 0.270234 -5.594800
0.000000 0.000000 0.000000 0.000000 0.000000 -0.000000 -3.653350 92.886800 1.459390 87.890700 4.846360 1.866110 15.735700 0.000005 -0.000001 70.294200 87.608100 -70.198800 8.984550 -0.406207 -0.000000 -3.261650 -1.621470 0.144703 16.377300 -0.000001 -0.000001 4.832460 1.819170 -2.793440 6.456720 -0.000001 -0.000000 2.746450 2.541300 -4.022440 12.994200 -0.242716 4.980390 -92.449600 7.377240 -71.573600 5.348090 -0.000007 -0.000001 -71.539700 21.637900 2.748360 24.328600 0.000019 0.000005 11.949900 25.175800 -26.451100 22.291600 -0.000001 0.000005 -1.565670 4.911170 9.154790 12.994500 -0.242716 -4.980390 89.041100 2.976970 -72.136900 -5.348130 -0.000001 -0.000004 -64.733600 24.147700 -5.348260 -24.328900 0.000322 -0.000009 2.296490 10.232800 -12.726600 -22.291500 -0.000108 -0.000004 -10.513300 5.081000 5.547090 -2.192480 -6.469440 -0.000000 -171.663000 -4.212890 -0.249211 39.081100 -0.000007 -0.000012 0.027932 -0.098535 15.827000 40.985400 -0.000006 -0.000013 -2.336900 13.309300 -69.013500 11.754300 -0.000000 0.000003 -0.002160 0.198328 -8.530250 -2.192510 6.469440 -0.000001 179.207000 10.059900 -177.246000 -39.081100 -0.002282 -0.040193 0.026801 -0.099305 13.295900 -40.985400 0.000008 0.000006 -3.997840 4.310690 -69.672400 -11.754300 -0.000006 -0.000006 -0.009871 0.270342 -5.590380
0.000000 0.000000 0.000000 0.000000 0.000000 -0.000000 -3.501900 92.889500 1.548610 87.845200 5.076840 1.685310 15.735700 0.000005 -0.000001 71.986200 87.587200 -72.245500 8.984550 -0.406207 -0.000000 -3.180810 -1.466820 -0.559527 16.377300 -0.000001 -0.000001 4.291340 1.408110 -2.881520 6.456720 -0.000001 -0.000000 2.128480 1.851430 -4.489210 12.994200 -0.242716 4.980390 -92.408400 7.271220 -71.617900 5.348090 -0.000007 -0.000001 -70.766600 21.212100 2.338870 24.328600 0.000019 0.000005 12.033100 25.157300 -26.630500 22.291600 -0.000001 0.000005 -1.510340 4.909790 9.182480 12.994500 -0.242716 -4.980390 89.138400 2.638710 -71.909100 -5.348130 -0.000001 -0.000004 -60.835200 23.067200 -6.116890 -24.328900 0.000322 -0.000009 2.601410 12.077200 -12.257500 -22.291500 -0.000108 -0.000004 -10.961700 5.050680 6.221150 -2.192480 -6.469440 -0.000000 -171.762000 -3.770400 -0.460700 39.081100 -0.000007 -0.000012 0.028078 -0.098596 15.896300 40.985400 -0.000006 -0.000013 -2.246140 13.104100 -69.068100 11.754300 -0.000000 0.000003 -0.001990 0.196216 -8.616120 -2.192510 6.469440 -0.000001 179.084000 10.536900 -177.199000 -39.081100 -0.002282 -0.040193 0.021755 -0.079656 13.021500 -40.985400 0.000008 0.000006 -4.358420 4.604730 -69.490300 -11.754300 -0.000006 -0.000006 -0.009987 0.271208 -5.554950
0.000000 0.000000 0.000000 0.000000 0.000000 -0.000000 -3.316870 92.882100 1.652420 87.801500 5.162830 1.580590 15.735700 0.000005 -0.000001 73.885300 87.532500 -74.533200 8.984550 -0.406207 -0.000000 -3.032380 -1.308150 -1.330720 16.377300 -0.000001 -0.000001 3.775680 0.970025 -3.004730 6.456720 -0.000001 -0.000000 1.384410 1.222970 -5.082670 12.994200 -0.242716 4.980390 -92.384000 7.200440 -71.626200 5.348090 -0.000007 -0.000001 -69.949700 20.657700 2.045320 24.328600 0.000019 0.000005 12.123600 25.060300 -26.891500 22.291600 -0.000001 0.000005 -1.267990 4.904480 9.288300 12.994500 -0.242716 -4.980390 89.258600 2.227240 -71.583100 -5.348130 -0.000001 -0.000004 -56.612400 20.571600 -7.079600 -24.328900 0.000322 -0.000009 2.863740 14.547300 -11.268800 -22.291500 -0.000108 -0.000004 -10.521300 5.018730 6.917760 -2.192480 -6.469440 -0.000000 -171.908000 -3.397690 -0.612747 39.081100 -0.000007 -0.000012 0.031359 -0.108561 16.112300 40.985400 -0.000006 -0.000013 -2.125970 12.722500 -69.310800 11.754300 -0.000000 0.000003 -0.002212 0.198965 -8.504350 -2.192510 6.469440 -0.000001 178.918000 10.905700 -177.119000 -39.081100 -0.002282 -0.040193 0.017204 -0.060882 12.833800 -40.985400 0.000008 0.000006 -4.731160 4.997810 -69.312200 -11.754300 -0.000006 -0.000006 -0.009847 0.270159 -5.597880
0.000000 0.000000 0.000000 0.000000 0.000000 -0.000000 -3.118890 92.888700 1.773100 87.734300 5.175560 1.404580 15.735700 0.000005 -0.000001 74.538200 87.500900 -75.601900 8.984550 -0.406207 -0.000000 -2.959650 -1.232410 -2.159530 16.377300 -0.000001 -0.000001 3.404110 0.565121 -3.200620 6.456720 -0.000001 -0.000000 0.491463 0.682156 -5.579710 12.994200 -0.242716 4.980390 -92.334600 7.039390 -71.599800 5.348090 -0.000007 -0.000001 -69.200500 20.152600 1.895550 24.328600 0.000019 0.000005 12.293300 25.153400 -27.143400 22.291600 -0.000001 0.000005 -0.957610 4.900420 9.369530 12.994500 -0.242716 -4.980390 89.417800 1.706610 -71.159800 -5.348130 -0.000001 -0.000004 -52.115600 16.599800 -8.153380 -24.328900 0.000322 -0.000009 2.838100 16.512700 -9.898250 -22.291500 -0.000108 -0.000004 -9.411600 4.987360 7.582440 -2.192480 -6.469440 -0.000000 -172.035000 -2.960740 -0.720027 39.081100 -0.000007 -0.000012 0.032524 -0.112449 16.131700 40.985400 -0.000006 -0.000013 -2.034590 12.270800 -69.385800 11.754300 -0.000000 0.000003 -0.002159 0.198319 -8.530600 -2.192510 6.469440 -0.000001 178.760000 11.212000 -177.014000 -39.081100 -0.002282 -0.040193 0.011046 -0.034900 12.459600 -40.985400 0.000008 0.000006 -5.311260 5.403820 -69.034500 -11.754300 -0.000006 -0.000006 -0.010075 0.271868 -5.527950
